PathFileType	4	(X/Y/Z)	C:/Users/beibeiliu/ov580/test_trc/User3\sequence.22_training_dense_right.trc
DataRate	CameraRate	NumFrames	NumMarkers	Units	OrigDataRate	OrigDataStartFrame	OrigNumFrames
120	120	25	19	mm	120	1	106
Frame#	Time	ThumbCMC			ThumbMCP			ThumbIP			ThumbTip			IndexMCP			IndexPIP			IndexTip			MiddleMCP			MiddlePIP			MiddleTip			RingMCP			RingPIP			RingTip			PinkyMCP			PinkyPIP			PinkyTip			BackHand1			BackHand2			BackHand3	
		X0	Y0	Z0	X1	Y1	Z1	X2	Y2	Z2	X3	Y3	Z3	X4	Y4	Z4	X5	Y5	Z5	X6	Y6	Z6	X7	Y7	Z7	X8	Y8	Z8	X9	Y9	Z9	X10	Y10	Z10	X11	Y11	Z11	X12	Y12	Z12	X13	Y13	Z13	X14	Y14	Z14	X15	Y15	Z15	X16	Y16	Z16	X17	Y17	Z17	X18	Y18	Z18	
0	0	119.071	37.4697	61.8679	93.1981	28.5072	39.447	79.1273	19.9609	13.3758	73.4901	10.6328	-7.27112	123.349	54.6967	-14.8591	111.164	48.0486	-42.9298	99.4637	41.3568	-61.5093	148.942	47.315	-24.5475	137.37	40.5615	-51.384	128.738	22.4278	-78.5353	164.3	36.7423	-19.6745	160.343	30.154	-46.2981	155.858	15.057	-70.9109	183.063	23.9067	-6.47458	187.996	17.8788	-29.0713	190.9	8.64049	-49.169	174.907	46.8704	32.0685	180.307	47.9899	63.0179	147.467	58.5969	52.117	
1	0.00833333	117.439	37.3204	57.0146	98.8345	26.4425	39.6529	82.6349	18.4003	11.2052	72.2222	8.42827	-5.54062	124.176	53.6116	-14.6534	110.542	49.7533	-42.3427	103.274	38.213	-65.0939	146.414	47.8122	-22.892	136.582	38.441	-54.5242	128.818	21.48	-80.0228	162.663	37.9484	-21.2444	165.65	29.451	-43.7067	155.253	15.983	-70.0139	183.421	23.6684	-5.37014	189.347	17.8531	-29.9269	187.282	9.16441	-51.856	175.229	46.2429	32.4093	180.782	46.7516	62.733	147.48	59.6236	49.1801	
2	0.0166667	117.368	37.5498	62.3875	99.8444	26.4555	36.8477	82.6012	18.4842	11.5253	76.9831	9.31309	-7.66385	125.358	53.7055	-15.1095	111.741	50.8576	-38.5761	105.787	39.8383	-62.3973	146.392	47.5515	-27.6516	137.265	39.1787	-53.8634	129.434	20.5754	-80.6602	166.236	36.9637	-19.9363	162.487	31.154	-42.7823	156.721	15.9702	-68.2966	184.595	25.3026	-6.19202	189.782	17.8269	-26.8171	189.496	10.913	-47.9022	176.75	46.4523	31.5493	184.211	46.9603	60.0271	150.367	59.5892	50.6124	
3	0.025	116.705	38.5162	59.5999	97.9077	27.2782	39.4945	84.2912	18.882	9.76051	76.5363	8.35296	-9.2534	124.445	55.0158	-12.8886	111.588	49.4331	-42.339	107.163	38.9561	-63.8656	151.099	47.0836	-25.9091	141.07	37.762	-54.9668	132.136	20.4719	-78.6331	165.164	38.6714	-21.2027	163.177	30.356	-46.6659	155.403	16.7137	-68.4365	184.741	25.4768	-4.58249	189.081	19.6617	-24.7048	189.914	10.1755	-51.5104	175.304	49.2903	32.081	182.964	45.4875	63.0891	146.86	60.4536	47.6981	
4	0.0333333	115.878	39.16	58.3798	99.3679	26.572	38.1669	84.8033	17.8046	10.7899	79.6103	6.47878	-10.5797	125.618	54.4417	-16.8382	112.6	50.8568	-39.6491	107.851	38.2677	-62.8109	147.582	48.8591	-21.9467	139.06	37.3548	-54.0941	129.893	22.226	-77.0534	165.163	37.3819	-16.0556	160.171	30.3419	-46.442	155.263	16.1554	-69.9189	185.964	23.8581	-2.06429	189.141	19.9233	-29.3561	189.053	9.69142	-51.3243	176.089	47.8519	35.3351	186.346	46.2855	62.8898	152.348	58.2325	51.0279	
5	0.0416667	116.716	37.4317	57.5691	101.784	24.7753	37.5942	87.9571	15.1303	14.7829	82.454	4.66052	-7.48343	123.068	53.8154	-14.4096	116.152	47.0156	-41.961	101.693	37.0739	-63.9963	149.646	47.0846	-22.2396	142.031	37.3745	-51.1719	129.162	21.038	-74.5777	163.532	37.3272	-19.2793	163.444	29.2107	-43.8094	153.384	15.6835	-64.9462	187.385	23.9287	-5.61049	187.856	20.8658	-25.6473	190.811	9.95218	-52.8612	179.68	45.4961	32.3306	183.322	45.8034	60.6307	151.743	58.0296	47.5833	
6	0.05	119.398	35.4693	58.2809	98.5233	24.2744	38.8129	84.3832	13.8337	11.4487	80.7659	1.59347	-8.26019	124.797	52.3738	-14.9743	111.697	45.9072	-41.6207	107.589	31.2454	-62.8675	146.626	47.6426	-23.1001	138.559	35.9003	-50.629	127.063	14.4388	-73.7646	167.226	35.8226	-19.9881	163.106	26.4729	-44.2715	154.106	9.59407	-64.1776	184.816	24.4561	-2.97657	190.332	18.139	-28.4675	189.029	9.24495	-53.3586	177.36	47.4684	35.5753	181.713	45.7938	63.17	149.81	57.6998	48.7345	
7	0.0583333	119.145	35.272	62.5772	100.072	23.8511	37.8516	87.4684	13.46	11.5885	84.0772	1.99395	-11.4184	124.542	53.2538	-15.4033	115.667	40.2566	-43.4987	105.399	21.3614	-61.5882	148.263	45.6827	-24.8056	137.339	31.6897	-51.1491	126.027	0.467461	-68.6353	167.818	34.415	-20.5054	162.71	21.678	-45.0529	148.394	2.05888	-58.6429	185.704	25.0336	-1.33719	188.407	21.5699	-25.0367	189.799	11.4033	-51.5104	177.366	49.0668	31.6303	183.482	46.1831	65.1775	148.945	59.2151	52.2792	
8	0.0666667	122.612	36.0744	56.9242	101.908	24.9822	37.0224	91.7792	15.7556	11.7609	86.7085	4.33209	-10.9603	128.561	51.9095	-17.0632	116.594	38.4112	-42.7811	108.558	13.8744	-51.5761	150.594	46.0026	-23.8669	137.184	24.6788	-49.9621	124.527	-4.19518	-50.586	167.014	36.3919	-16.2799	160.168	19.8418	-41.4465	144.782	-11.5616	-44.3624	187.915	25.8758	-2.89284	187.181	21.9425	-27.7571	189	8.89225	-48.5979	182.812	47.5545	32.936	187.042	44.847	61.95	153.39	57.6545	52.5888	
9	0.075	121.813	38.1537	61.1849	103.872	27.1332	34.7331	92.5059	20.4965	9.56931	89.7773	10.7538	-15.9122	133.145	51.8345	-17.7746	117.488	36.1871	-39.0854	109.101	3.32846	-33.1961	148.183	45.4597	-26.3102	136.34	17.7628	-43.5025	125.125	-10.0475	-25.8472	168.912	34.6129	-17.0288	157.948	13.3506	-37.3173	142.884	-13.2043	-21.7594	190.771	26.1506	-3.86799	188.225	22.3131	-28.3685	182.216	10.988	-50.1718	178.941	47.6021	35.9663	187.461	44.5258	61.142	157.07	59.3978	53.2324	
10	0.0833333	126.242	40.0206	57.789	104.476	33.8899	31.8807	92.3215	27.7589	5.95844	94.8804	18.9534	-19.3162	133.319	53.1335	-14.4027	116.59	26.4742	-33.1814	114.956	2.74631	-14.489	150.625	39.7875	-24.1088	138.48	11.7354	-33.8352	132.332	-5.27271	0.763046	168.532	28.9873	-19.7949	155.459	3.81363	-27.5247	144.76	-9.24943	2.13462	191.378	25.8366	-5.42856	186.092	21.8815	-28.8597	176.964	7.35609	-51.9425	181.883	48.5118	37.9392	188.75	45.6527	66.0737	157.35	58.0144	54.1069	
11	0.0916667	126.538	41.1114	61.3568	111.515	38.8529	33.1707	98.3439	37.0184	0.755427	98.6432	29.0629	-23.8593	131.88	50.9358	-16.0269	118.078	21.9291	-25.1311	117.547	8.71202	5.54394	148.815	38.9585	-19.1685	134.399	6.56016	-20.3112	133.758	4.98955	18.9	166.059	25.5187	-17.3505	152.851	-1.14991	-15.5307	146.87	0.0833686	19.2128	185.814	28.5869	-9.6692	182.523	19.6097	-32.9817	174.028	5.28759	-50.8712	186.231	48.8493	31.9317	189.703	43.9694	63.9927	156.275	60.9498	50.3966	
12	0.1	125.129	42.7528	58.8864	110.968	41.1596	30.979	100.498	38.6985	3.57109	99.7561	33.4368	-21.578	130.386	48.3602	-18.9109	118.151	18.6786	-20.3633	116.912	12.6721	9.71484	145.311	33.0389	-21.5294	135.578	3.23211	-10.6483	140.823	10.7067	24.4116	162.503	21.7556	-16.3763	151.751	-5.38188	-5.48489	147.804	3.78636	25.9554	187.52	27.2413	-12.4438	179.628	19.9151	-32.6619	169.598	6.86067	-51.4694	186.254	51.0274	31.8717	189.623	42.6712	61.4683	158.465	61.6605	52.8485	
13	0.108333	129.294	42.5163	54.3554	110.852	42.8786	28.5074	104.27	42.4461	0.275735	100.029	37.2361	-21.9201	134.526	47.202	-17.2117	120.051	16.8808	-19.3942	123.56	15.7246	16.0837	151.683	32.6808	-19.7848	136.376	3.64966	-11.8727	145.677	14.5825	27.2385	164.2	18.2008	-16.3809	148.113	-2.3362	-5.04667	151.426	2.0273	26.42	189.928	26.3719	-10.8983	180.62	18.2727	-34.9138	171.59	10.1274	-50.6131	185.865	50.096	33.5292	189.976	43.8173	59.446	157.826	62.2675	51.6782	
14	0.116667	127.823	44.1864	54.1321	108.855	45.9347	29.7174	104.727	46.5413	-0.195855	102.313	44.2807	-27.4641	131.409	46.5186	-20.6975	120.97	15.9547	-17.0289	123.331	16.9199	14.4038	147.064	33.3846	-19.5202	137.747	4.12819	-12.0367	145.568	15.9156	26.6376	166.123	19.4514	-15.4426	150.818	-5.03629	-1.73179	151.962	6.63923	29.4253	189.037	27.7049	-10.3758	186.673	20.7373	-32.8518	174.778	11.1357	-55.3826	188.743	49.45	31.3554	188.566	46.0044	61.5103	157.853	61.6907	47.0306	
15	0.125	126.997	45.5238	54.293	112.517	45.5223	28.8352	105.34	46.8339	-0.323292	104.342	43.9276	-23.6442	131.836	47.1416	-20.0437	119.497	16.666	-16.6732	123.441	17.5309	14.8214	148.283	31.384	-20.7861	135.184	4.60131	-8.31346	143.9	15.7366	26.1982	163.108	22.3626	-15.8292	156.136	-5.15862	-6.65848	154.849	4.09261	28.5165	190.955	29.7414	-10.415	187.867	23.5439	-32.1171	179.658	16.3853	-54.4601	190.638	51.0211	32.9078	192.627	46.7645	59.6476	158.289	61.2408	50.6618	
16	0.133333	130.752	42.6591	55.1198	112.634	45.7537	27.7943	110.917	46.4946	-3.40712	107.389	43.319	-26.4028	133.271	46.1926	-20.6429	119.881	17.4489	-18.7463	128.695	16.4153	14.7104	150.699	35.057	-20.1763	137.636	5.26927	-12.0268	149.277	13.5068	23.4449	167.825	25.8003	-13.6749	155.071	-3.87512	-5.1712	154.071	5.21056	27.7024	193.785	30.5252	-7.20867	187.271	25.3797	-33.2421	182.031	19.0713	-55.2554	189.378	52.6041	34.3585	192.892	47.2153	63.8996	159.468	60.4927	51.7677	
17	0.141667	128.813	45.1377	54.0977	117.054	45.2164	25.3542	107.83	45.7802	-1.40437	106.795	43.6198	-23.6388	136.9	46.4493	-21.298	124.244	17.0672	-20.5071	128.107	16.0352	11.2748	153.134	32.3966	-21.6761	140.962	4.37498	-10.4402	146.56	17.1383	24.9758	166.656	25.5357	-16.1964	157.816	-3.90887	-4.62799	153.532	5.03563	24.31	191.559	33.4693	-10.3244	189.24	27.3731	-33.5674	189.26	21.8041	-54.4663	190.996	53.4177	34.0062	192.844	48.0213	65.7676	157.003	62.5662	51.8455	
18	0.15	125.948	45.234	56.8607	115.119	47.0967	24.6727	106.306	46.8843	-2.27061	105.086	45.9233	-26.9885	134.211	51.4034	-20.1905	123.91	21.2736	-24.7236	130.039	17.0071	10.9462	150.227	36.1261	-23.9499	142.423	7.82379	-16.7357	151.244	17.6721	22.1605	172.809	28.0681	-16.3418	157.949	0.0637487	-12.1283	154.908	7.05772	22.5132	193.046	35.3294	-7.93875	188.792	31.3529	-34.6094	188.854	25.1128	-53.0502	186.259	56.8039	31.8337	188.257	48.8228	62.2923	159.19	63.8932	50.071	
19	0.158333	125.766	45.6629	50.6424	116.702	47.3493	21.2914	109.287	47.4153	-4.40597	106.15	47.0437	-30.1685	134.76	54.5713	-20.8266	123.309	23.6989	-28.1582	124.794	18.9829	4.44095	154.938	37.9834	-27.2337	143.578	9.79736	-18.9889	150.284	20.301	19.108	169.947	29.7493	-22.4572	156.64	3.4751	-15.2274	156.396	10.684	19.2414	191.453	39.4033	-10.0897	190.829	36.8418	-34.7672	185.27	34.9654	-59.5035	184.77	59.9914	27.7186	189.542	52.0029	57.2248	158.223	64.0445	49.4953	
20	0.166667	130.162	45.0695	42.0818	116.365	46.7304	17.8339	107.002	49.82	-13.6203	113.236	49.7363	-36.5765	140.796	57.5321	-28.7359	126.934	28.1739	-35.6368	130.186	21.8709	-3.30703	155.863	48.5692	-30.6248	148.511	15.3909	-29.776	151.289	23.7809	13.3196	172.863	38.0906	-28.1137	162.422	8.80535	-22.0873	164.133	9.901	9.51392	198.959	47.7889	-18.0272	197.868	45.8315	-38.9987	195.702	43.456	-64.1312	191.113	62.5952	27.9304	192.299	55.1578	55.8863	153.887	68.0594	39.8883	
21	0.175	133.647	47.5362	31.9202	124.852	47.6702	3.16863	115.489	49.4478	-26.3589	118.81	46.8902	-47.1899	146.821	56.6146	-41.1695	137.52	28.454	-46.9317	140.618	22.8142	-9.35401	165.463	47.7346	-41.1616	155.096	15.7834	-34.9021	159.99	23.1334	3.76501	184.382	39.0042	-36.7165	176.034	12.4712	-32.3464	172.223	10.937	1.95404	206.102	53.8112	-27.0262	204.348	51.1268	-48.0355	203.528	46.9965	-71.6668	190.92	68.4362	20.6236	194.527	59.1996	47.8761	162.763	69.8796	33.9794	
22	0.183333	140.53	44.0679	22.444	131.279	39.2629	-3.68117	127.235	39.1231	-37.7487	131.212	33.2339	-59.6672	155.48	45.1588	-51.0472	149.366	14.0193	-49.3799	150.477	14.4156	-16.5681	178.255	37.7231	-46.1905	169.472	5.6072	-40.0811	168.005	19.5747	-0.874142	195.499	31.1887	-39.3647	184.574	1.44278	-34.0103	180.294	6.13384	0.730227	211.3	45.0652	-33.6319	216.515	37.989	-54.0914	211.184	30.3028	-78.1674	197.913	66.1656	6.07384	197.231	59.0464	40.7515	167.304	67.2815	19.0984	
23	0.191667	142.756	40.3143	19.6039	135.173	31.197	-8.96677	132.976	23.6437	-36.1928	132.75	13.6358	-61.276	164.415	29.3536	-51.3061	149.975	-2.73402	-47.2932	153.642	5.06081	-15.6534	179.469	19.5958	-48.1329	169.98	-10.8851	-35.2887	169.115	8.04065	-1.30448	196.987	10.0413	-39.0148	186.577	-16.6947	-24.0762	177.004	1.32647	4.49818	217.388	22.8394	-35.7193	216.793	13.88	-52.3053	214.822	-5.20673	-73.4784	206.26	51.258	-0.897259	204.995	54.9216	33.9025	173.593	61.2002	14.8171	
24	0.2	148.152	41.7735	16.2925	136.883	30.3281	-8.70965	127.529	18.4277	-35.0609	130.261	3.633	-58.3608	159.835	12.1633	-50.0384	144.346	-11.9455	-39.1343	148.405	5.22574	-10.4867	178.562	0.933446	-42.2759	158.845	-21.3628	-26.3652	165.976	6.3727	3.98663	187.571	-8.79169	-35.1328	174.805	-27.6742	-15.4853	171.989	-8.2835	9.56195	212.452	0.0149625	-29.4419	206.931	-16.2416	-49.5399	203.728	-33.9676	-60.076	208.453	38.8954	-2.73519	208.867	46.1601	32.0956	176.568	55.4737	10.4017	
